<svg width="42" height="42" viewBox="0 0 42 42" fill="none" xmlns="http://www.w3.org/2000/svg">
<circle cx="21" cy="21" r="21" fill="#333333"/>
<path d="M32.2575 13.1078L21.0075 8.10782C20.8475 8.03673 20.6744 8 20.4994 8C20.3243 8 20.1512 8.03673 19.9913 8.10782L8.74125 13.1078C8.71625 13.1191 8.69875 13.1378 8.67375 13.1516C8.63875 13.1691 8.60125 13.1803 8.56875 13.2016C8.54125 13.2203 8.52 13.2441 8.49375 13.2641C8.40238 13.332 8.32224 13.4138 8.25625 13.5066C8.23125 13.5416 8.205 13.5728 8.1825 13.6078C8.1453 13.6739 8.11352 13.7429 8.0875 13.8141C8.07625 13.8478 8.05875 13.8791 8.04875 13.9128C8.01736 14.0226 8.00096 14.1361 8 14.2503V26.7503C8 27.2453 8.29 27.6916 8.7425 27.8928L19.9925 32.8928C20.155 32.9653 20.3275 33.0003 20.5 33.0003C20.674 32.9959 20.8452 32.955 21.0025 32.8803L21.0075 32.8928L32.2575 27.8928C32.4786 27.7948 32.6665 27.6346 32.7983 27.4318C32.9301 27.2289 33.0002 26.9922 33 26.7503V14.2503C33.0002 14.0084 32.9301 13.7717 32.7983 13.5689C32.6665 13.3661 32.4786 13.2059 32.2575 13.1078V13.1078ZM20.5 10.6191L28.6725 14.2503L20.5 17.8816L18.865 17.1553L12.3287 14.2503L20.5 10.6191ZM21.75 29.8266V20.0628L30.5 16.1741V25.9391L21.75 29.8266Z" fill="white"/>
</svg>
